<svg width="360" height="362" xmlns="http://www.w3.org/2000/svg" xmlns:xlink="http://www.w3.org/1999/xlink" overflow="hidden"><defs><clipPath id="clip0"><rect x="856" y="34" width="360" height="362"/></clipPath><clipPath id="clip1"><rect x="856" y="35" width="360" height="360"/></clipPath><clipPath id="clip2"><rect x="856" y="35" width="360" height="360"/></clipPath><clipPath id="clip3"><rect x="856" y="35" width="360" height="360"/></clipPath></defs><g clip-path="url(#clip0)" transform="translate(-856 -34)"><g clip-path="url(#clip1)"><g clip-path="url(#clip2)"><g clip-path="url(#clip3)"><path d="M1064.88 184.291C1065.49 184.888 1066.15 185.434 1066.85 185.923 1069.31 187.759 1072.3 188.764 1075.38 188.791L1118.5 188.791C1123.84 188.761 1128.76 185.888 1131.42 181.25 1132.76 178.992 1133.48 176.416 1133.5 173.787 1133.48 166.668 1128.47 160.538 1121.5 159.091 1120.51 158.887 1119.51 158.783 1118.5 158.784L1081.75 158.784C1081.75 158.784 1039 115.659 1038.25 115.284 1035.11 112.672 1031.38 110.88 1027.38 110.071 1026.11 109.852 1024.83 109.74 1023.55 109.738 1016.98 109.784 1010.74 112.613 1006.38 117.522L980.875 146.592 955.375 175.662C952.328 179.126 950.431 183.45 949.945 188.038 949.146 195.332 951.856 202.573 957.25 207.549 957.812 208.018 958.375 208.464 958.941 208.88 960.571 210.128 962.411 211.075 964.375 211.674L1020.62 234.174 1020.62 302.825C1020.62 304.827 1021.03 306.809 1021.81 308.652 1024.98 316.262 1033.72 319.857 1041.33 316.682 1043.87 315.623 1046.07 313.882 1047.68 311.652 1049.58 309.102 1050.62 306.007 1050.62 302.825L1050.62 224.053C1050.59 218.069 1047.07 212.653 1041.62 210.178L1000 192.553 1034.12 153.553ZM1081.75 166.291 1118.5 166.291C1122.64 166.291 1126 169.649 1126 173.791 1126 177.934 1122.64 181.291 1118.5 181.291L1075.38 181.291C1073.4 181.258 1071.53 180.428 1070.18 178.989L1039.43 148.239 1036.59 145.404 1033.76 142.569 1028.48 148.603 994.36 187.603 987.535 195.402 997.079 199.449 1034.28 215.199 1038.68 217.074C1041.37 218.363 1043.09 221.069 1043.12 224.053L1043.12 302.825C1043.09 306.953 1039.75 310.292 1035.62 310.325 1032.06 310.326 1028.99 307.817 1028.28 304.325 1028.18 303.831 1028.13 303.329 1028.12 302.825L1028.12 229.104 1023.41 227.229 1018.3 225.181 967.15 204.71 966.794 204.567 966.419 204.462C965.23 204.062 964.122 203.451 963.149 202.659 962.838 202.426 962.523 202.186 962.181 201.909 959.386 199.276 957.672 195.698 957.37 191.87 957.37 191.727 957.314 191.585 957.306 191.442 957.304 191.408 957.304 191.372 957.306 191.337 957.09 187.416 958.416 183.566 961 180.609L1004.16 131.409 1012 122.476C1013.6 120.681 1015.6 119.284 1017.84 118.396 1020.32 117.303 1023.08 116.966 1025.76 117.425 1028.03 117.779 1030.18 118.66 1032.05 119.997 1032.48 120.278 1032.89 120.579 1033.29 120.901L1033.67 121.228C1037.01 124.378 1061.38 148.876 1076.42 164.064L1078.62 166.284Z" fill="#000000" fill-rule="nonzero" fill-opacity="1"/><path d="M977.856 250.34C967.348 243.22 954.943 239.421 942.25 239.435L942.25 239.435C907.123 239.346 878.574 267.75 878.486 302.878 878.47 308.924 879.317 314.942 881.001 320.75 881.129 321.207 881.215 321.684 881.357 322.138 881.417 322.336 881.508 322.512 881.571 322.723 890.067 349.065 914.571 366.932 942.25 366.965 977.458 366.971 1006.01 338.435 1006.01 303.227 1006.02 282.015 995.469 262.19 977.875 250.34ZM942.25 359.465C911.172 359.411 886.021 334.174 886.074 303.096 886.124 274.315 907.883 250.21 936.509 247.224 937.634 247.111 938.781 247.1 939.921 247.051 940.701 247.021 941.466 246.935 942.25 246.935 973.324 246.935 998.515 272.126 998.515 303.2 998.515 334.274 973.324 359.465 942.25 359.465Z" fill="#000000" fill-rule="nonzero" fill-opacity="1"/><path d="M1190.63 284.259C1180.17 250.64 1144.44 231.865 1110.82 242.324 1077.2 252.783 1058.42 288.516 1068.88 322.134 1073.19 335.986 1082.1 347.953 1094.12 356.06 1094.88 356.574 1095.7 357.009 1096.48 357.492 1097.44 358.085 1098.39 358.715 1099.38 359.259 1130.34 376.036 1169.03 364.543 1185.81 333.589 1194 318.469 1195.74 300.679 1190.63 284.259ZM1124.01 359.176C1093.13 356.166 1070.54 328.694 1073.55 297.816 1075.68 275.944 1090.37 257.324 1111.14 250.16 1117.12 248.037 1123.41 246.946 1129.75 246.935 1133.55 246.927 1137.35 247.304 1141.07 248.06 1142.9 248.435 1144.7 248.897 1146.46 249.448 1176.13 258.705 1192.68 290.261 1183.42 319.931 1175.45 345.464 1150.62 361.862 1124.01 359.158Z" fill="#000000" fill-rule="nonzero" fill-opacity="1"/><path d="M1077.25 123.151C1093.82 123.151 1107.25 109.72 1107.25 93.1513 1107.25 76.5826 1093.82 63.1512 1077.25 63.1512 1060.68 63.1512 1047.25 76.5826 1047.25 93.1513 1047.25 109.72 1060.68 123.151 1077.25 123.151ZM1077.25 70.6513C1089.72 70.6039 1099.87 80.6776 1099.92 93.1516 1099.97 105.626 1089.9 115.776 1077.42 115.823 1064.95 115.871 1054.8 105.797 1054.75 93.323 1054.73 89.0521 1055.93 84.8641 1058.2 81.245 1062.29 74.657 1069.49 70.6437 1077.25 70.625Z" fill="#000000" fill-rule="nonzero" fill-opacity="1"/></g></g></g></g></svg>