<svg width="360" height="362" xmlns="http://www.w3.org/2000/svg" xmlns:xlink="http://www.w3.org/1999/xlink" overflow="hidden"><defs><clipPath id="clip0"><rect x="856" y="34" width="360" height="362"/></clipPath><clipPath id="clip1"><rect x="856" y="35" width="360" height="360"/></clipPath><clipPath id="clip2"><rect x="856" y="35" width="360" height="360"/></clipPath><clipPath id="clip3"><rect x="856" y="35" width="360" height="360"/></clipPath></defs><g clip-path="url(#clip0)" transform="translate(-856 -34)"><g clip-path="url(#clip1)"><g clip-path="url(#clip2)"><g clip-path="url(#clip3)"><path d="M1175.23 214.221 1175.17 214.221C1172.61 214.241 1169.33 214.324 1165.49 214.526L1164.1 199.685C1164.1 199.685 1162.71 199.585 1160.14 199.585 1157.54 199.585 1153.65 199.719 1148.83 200.132L1146.68 175.288C1141.92 174.576 1137.11 174.249 1132.3 174.309 1096.15 174.368 1061.61 189.284 1036.78 215.559L1035.22 215.559C1010.39 189.285 975.849 174.37 939.697 174.309 934.886 174.248 930.078 174.576 925.32 175.288L923.176 200.131C918.352 199.718 914.459 199.584 911.866 199.584 909.289 199.584 907.902 199.684 907.902 199.684L906.514 214.524C902.673 214.323 899.395 214.24 896.829 214.219L896.773 214.219C893.085 214.218 890.004 217.028 889.665 220.7L878.885 337.09C878.508 341.023 881.39 344.517 885.322 344.894 885.548 344.916 885.774 344.927 886 344.927 886.078 344.927 886.156 344.927 886.234 344.924 888.406 344.854 890.968 344.806 893.879 344.806 920.131 344.806 974.368 348.808 1019.27 378.143 1021.62 379.703 1024.38 380.543 1027.2 380.562L1044.99 380.562C1047.7 380.546 1050.35 379.771 1052.64 378.326 1099.98 348.825 1153.2 344.807 1178.69 344.807 1181.36 344.807 1183.73 344.851 1185.76 344.915L1185.96 344.918C1189.92 344.928 1193.14 341.724 1193.15 337.763 1193.15 337.535 1193.14 337.307 1193.12 337.081L1182.34 220.7C1182 217.029 1178.92 214.221 1175.23 214.221ZM1023.37 371.863C977.344 341.796 922.483 337.306 893.877 337.306 891.327 337.306 888.808 337.344 886.387 337.416L897.102 221.724C899.363 221.745 902.309 221.822 905.812 222.007L895.776 329.221C895.776 329.221 896.987 329.16 899.226 329.16 913.879 329.16 972.54 331.805 1023.52 371.61 1023.88 371.885 1024.63 372.36 1024.58 372.44 1024.14 372.321 1023.74 372.125 1023.37 371.863ZM1032.19 368.957C983.106 328.431 926.456 322.409 904.01 321.734L914.738 207.125C916.865 207.182 919.501 207.323 922.533 207.582L913.66 310.419C913.66 310.419 982.88 318.832 1032.25 367.884L1032.25 368.927C1032.25 368.971 1032.22 368.984 1032.19 368.956ZM1032.19 357.522C991.234 319.997 940.37 307.554 921.732 304.118L932.264 182.066C934.282 181.923 936.789 181.811 939.698 181.811 974.177 181.864 1007.08 196.237 1030.56 221.494L1032.25 223.284 1032.25 357.496C1032.25 357.541 1032.22 357.552 1032.19 357.521ZM1039.75 223.287 1041.45 221.496C1064.92 196.237 1097.82 181.863 1132.3 181.81 1135.21 181.81 1137.72 181.923 1139.74 182.066L1150.27 304.118C1131.63 307.553 1080.77 319.997 1039.81 357.521 1039.78 357.552 1039.75 357.541 1039.75 357.495ZM1039.75 368.929 1039.75 367.886C1089.12 318.834 1158.34 310.421 1158.34 310.421L1149.47 207.583C1152.5 207.323 1155.14 207.183 1157.26 207.126L1167.99 321.734C1145.55 322.409 1088.9 328.43 1039.81 368.956 1039.78 368.984 1039.75 368.971 1039.75 368.927ZM1178.68 337.307C1150.9 337.307 1097.06 341.807 1048.67 371.963 1048.2 372.284 1047.68 372.525 1047.14 372.675 1047.05 372.55 1047.97 372.004 1048.38 371.68 1099.39 331.803 1158.12 329.162 1172.78 329.163 1175.01 329.163 1176.23 329.224 1176.23 329.224L1166.19 222.007C1169.69 221.822 1172.64 221.744 1174.9 221.724L1185.61 337.405C1183.61 337.346 1181.28 337.306 1178.68 337.306Z" fill="#000000" fill-rule="nonzero" fill-opacity="1"/><path d="M1133.18 88.0602C1135.99 78.1768 1142.91 69.9784 1152.18 65.5539 1142.91 61.1316 1135.99 52.9387 1133.18 43.0602 1130.37 52.9432 1123.44 61.1392 1114.17 65.5539 1123.45 69.9708 1130.37 78.1722 1133.18 88.0602ZM1133.18 59.4594C1134.81 61.6628 1136.66 63.704 1138.68 65.555 1136.66 67.4061 1134.81 69.4476 1133.18 71.6514 1131.55 69.4472 1129.7 67.4056 1127.68 65.555 1129.7 63.7044 1131.55 61.6631 1133.18 59.4594Z" fill="#000000" fill-rule="nonzero" fill-opacity="1"/><path d="M893.242 170.56C896.052 160.676 902.976 152.478 912.25 148.054 902.979 143.632 896.056 135.439 893.242 125.56 890.437 135.443 883.511 143.639 874.234 148.054 883.514 152.471 890.441 160.672 893.242 170.56ZM893.247 141.96C894.881 144.163 896.723 146.204 898.747 148.055 896.722 149.906 894.88 151.948 893.247 154.151 891.614 151.947 889.771 149.906 887.746 148.055 889.771 146.204 891.613 144.163 893.247 141.96Z" fill="#000000" fill-rule="nonzero" fill-opacity="1"/><path d="M930.16 88.0602C932.502 79.8241 938.272 72.9924 946 69.3057 938.275 65.6199 932.505 58.7924 930.16 50.5602 927.822 58.796 922.05 65.6261 914.32 69.3057 922.053 72.9864 927.825 79.8204 930.16 88.0602ZM930.164 66.2626C931.029 67.3278 931.952 68.3437 932.93 69.3057 931.952 70.2683 931.029 71.2849 930.164 72.3508 929.299 71.2849 928.375 70.2683 927.397 69.3057 928.375 68.3437 929.299 67.3278 930.164 66.2626Z" fill="#000000" fill-rule="nonzero" fill-opacity="1"/><path d="M1177.66 148.06C1180 139.824 1185.77 132.992 1193.5 129.306 1185.77 125.62 1180.01 118.792 1177.66 110.56 1175.32 118.796 1169.55 125.626 1161.82 129.306 1169.55 132.986 1175.33 139.82 1177.66 148.06ZM1177.66 126.263C1178.53 127.328 1179.45 128.344 1180.43 129.306 1179.45 130.268 1178.53 131.285 1177.66 132.351 1176.8 131.285 1175.88 130.268 1174.9 129.306 1175.88 128.344 1176.8 127.328 1177.66 126.263Z" fill="#000000" fill-rule="nonzero" fill-opacity="1"/><path d="M1036 69.3102C1038.07 69.3102 1039.75 67.6313 1039.75 65.5602L1039.75 50.5602C1039.75 48.4892 1038.07 46.8102 1036 46.8102 1033.93 46.8102 1032.25 48.4892 1032.25 50.5602L1032.25 65.5602C1032.25 67.6313 1033.93 69.3102 1036 69.3102Z" fill="#000000" fill-rule="nonzero" fill-opacity="1"/><path d="M1036 181.81C1038.07 181.81 1039.75 180.131 1039.75 178.06L1039.75 140.56C1039.75 138.489 1038.07 136.81 1036 136.81 1033.93 136.81 1032.25 138.489 1032.25 140.56L1032.25 178.06C1032.25 180.131 1033.93 181.81 1036 181.81Z" fill="#000000" fill-rule="nonzero" fill-opacity="1"/><path d="M1036 121.81C1038.07 121.81 1039.75 120.131 1039.75 118.06L1039.75 88.0602C1039.75 85.9891 1038.07 84.3102 1036 84.3102 1033.93 84.3102 1032.25 85.9891 1032.25 88.0602L1032.25 118.06C1032.25 120.131 1033.93 121.81 1036 121.81Z" fill="#000000" fill-rule="nonzero" fill-opacity="1"/><path d="M1087.6 104.173C1089.63 104.615 1091.62 103.333 1092.07 101.309 1092.07 101.308 1092.07 101.307 1092.07 101.306L1096.85 79.3197C1097.29 77.2951 1096.01 75.2968 1093.98 74.8565 1091.96 74.4163 1089.96 75.7002 1089.52 77.7249L1084.74 99.7115C1084.3 101.735 1085.58 103.733 1087.6 104.173Z" fill="#000000" fill-rule="nonzero" fill-opacity="1"/><path d="M1076.46 155.475C1078.48 155.917 1080.47 154.636 1080.91 152.615 1080.91 152.612 1080.91 152.609 1080.92 152.607L1087.29 123.291C1087.73 121.267 1086.44 119.269 1084.42 118.829 1082.39 118.389 1080.4 119.674 1079.96 121.699L1073.58 151.014C1073.14 153.038 1074.43 155.035 1076.45 155.474 1076.45 155.475 1076.45 155.475 1076.46 155.475Z" fill="#000000" fill-rule="nonzero" fill-opacity="1"/><path d="M1114.75 148.06C1115.98 148.062 1117.14 147.457 1117.84 146.442L1143.41 109.417C1144.59 107.712 1144.16 105.376 1142.46 104.198 1140.75 103.021 1138.41 103.449 1137.24 105.154L1111.66 142.179C1110.49 143.883 1110.91 146.219 1112.62 147.396 1113.24 147.828 1113.99 148.06 1114.75 148.06Z" fill="#000000" fill-rule="nonzero" fill-opacity="1"/><path d="M983.119 115.963 991.084 152.606C991.524 154.631 993.522 155.915 995.547 155.475 997.571 155.036 998.855 153.038 998.416 151.013L990.451 114.369C990.011 112.345 988.013 111.06 985.989 111.5 983.964 111.94 982.679 113.938 983.119 115.963Z" fill="#000000" fill-rule="nonzero" fill-opacity="1"/><path d="M978.34 93.9774C978.78 96.002 980.779 97.286 982.803 96.8458 984.828 96.4055 986.112 94.4071 985.672 92.3825L982.482 77.7249C982.042 75.7002 980.043 74.4163 978.019 74.8565 975.994 75.2968 974.71 77.2951 975.15 79.3197Z" fill="#000000" fill-rule="nonzero" fill-opacity="1"/><path d="M929.542 104.2C927.839 105.378 927.412 107.712 928.586 109.417L954.161 146.442C955.339 148.146 957.675 148.574 959.38 147.398 961.085 146.221 961.513 143.884 960.336 142.179L934.76 105.154C933.584 103.45 931.248 103.022 929.544 104.199 929.544 104.2 929.543 104.2 929.542 104.2Z" fill="#000000" fill-rule="nonzero" fill-opacity="1"/></g></g></g></g></svg>