<svg width="97" height="97" xmlns="http://www.w3.org/2000/svg" xmlns:xlink="http://www.w3.org/1999/xlink" overflow="hidden"><defs><clipPath id="clip0"><rect x="840" y="61" width="97" height="97"/></clipPath><clipPath id="clip1"><rect x="841" y="62" width="96" height="96"/></clipPath><clipPath id="clip2"><rect x="841" y="62" width="96" height="96"/></clipPath><clipPath id="clip3"><rect x="841" y="62" width="96" height="96"/></clipPath></defs><g clip-path="url(#clip0)" transform="translate(-840 -61)"><g clip-path="url(#clip1)"><g clip-path="url(#clip2)"><g clip-path="url(#clip3)"><path d="M901.532 115C907.17 117.1 911.5 119.343 914.349 121.765 915.953 123.051 916.92 124.969 917 127.023L918.757 141.046C918.901 142.131 918.428 143.205 917.532 143.833 916.109 144.77 914.59 145.553 913 146.167L913 148.322C914.989 147.602 916.885 146.65 918.651 145.485 920.165 144.437 920.969 142.632 920.734 140.805L919 126.928C918.881 124.325 917.663 121.894 915.649 120.24 912.964 118.069 909.982 116.293 906.794 114.966 906.821 112.195 906.976 96.031 907.004 89.619 907.037 87.9118 906.837 86.2081 906.41 84.555 905.036 79.4794 901.564 75.23 896.864 72.872 896.097 72.4941 895.185 72.5711 894.492 73.072L894.38 73.152 893.937 72.533C893.472 71.8676 892.763 71.4126 891.964 71.267 886.695 70.3433 881.289 71.8361 877.241 75.333 873.215 78.8729 870.954 84.0072 871.06 89.367L871.22 114.967C868.029 116.294 865.044 118.072 862.357 120.245 860.343 121.899 859.125 124.329 859.005 126.933L857.273 140.817C857.044 142.64 857.848 144.438 859.358 145.484 861.121 146.648 863.015 147.6 865 148.321L865 146.165C863.415 145.55 861.9 144.768 860.481 143.832 859.588 143.207 859.115 142.137 859.255 141.056L861 127.126 861.008 127.026C861.087 124.973 862.053 123.054 863.655 121.768 866.55 119.3 870.682 117.129 876.468 115 879.176 116.861 883.9 118 889 118 894.1 118 898.824 116.861 901.532 115ZM875.64 113.181C874.797 113.492 873.988 113.804 873.215 114.118L873.06 89.354C872.958 84.5842 874.961 80.0115 878.538 76.854 882.131 73.7455 886.932 72.418 891.612 73.239 891.894 73.2969 892.143 73.4617 892.306 73.699L893.329 75.129C893.65 75.5773 894.273 75.6816 894.722 75.362L895.647 74.703C895.739 74.6334 895.861 74.6181 895.967 74.663 900.157 76.7672 903.251 80.5571 904.475 85.083 904.855 86.5611 905.032 88.0841 905 89.61 904.974 95.542 904.839 109.836 904.8 114.123 904.046 113.818 903.261 113.514 902.444 113.211L899.244 111.898C898.492 111.591 898.001 110.86 898 110.048L898 106.71C901.169 104.056 903 100.134 903 96L903 91C903 89.3431 901.657 88 900 88L878 88C876.343 88 875 89.3431 875 91L875 96C875 100.129 876.828 104.047 879.992 106.7L879.992 110.044C879.995 110.857 879.505 111.59 878.754 111.9ZM877 96 877 91C877 90.4477 877.448 90 878 90L900 90C900.552 90 901 90.4477 901 91L901 96C901 102.627 895.627 108 889 108 882.373 108 877 102.627 877 96ZM889 116C885.504 116.081 882.031 115.409 878.816 114.032L879.516 113.746C881.02 113.134 882.002 111.671 882 110.047L882 108.1C886.324 110.628 891.674 110.63 896 108.107L896 110.047C895.997 111.67 896.978 113.133 898.481 113.747L899.181 114.034C895.967 115.411 892.495 116.081 889 116Z" fill="#000000" fill-rule="nonzero" fill-opacity="1"/><path d="M911 127.54C910.995 125.579 909.401 123.994 907.44 124 907.438 124 907.436 124 907.434 124L870.544 124C868.588 124 867.002 125.584 867 127.54L867 150.19 860 150.19 860 152.464C860.013 154.414 861.593 155.991 863.544 156L914.468 156C916.415 155.985 917.989 154.407 918 152.46L918 150.19 911 150.19ZM916 152.19 916 152.456C915.995 153.303 915.311 153.99 914.464 154L863.548 154C862.697 153.997 862.007 153.311 862 152.46L862 152.19 869 152.19 869 127.54C869.001 126.688 869.692 125.999 870.544 126L907.464 126C908.312 126.003 908.999 126.691 909 127.54L909 152.19Z" fill="#000000" fill-rule="nonzero" fill-opacity="1"/><path d="M885.706 145.18 887.556 145.95 892.236 134.63 890.396 133.86 885.706 145.18Z" fill="#000000" fill-rule="nonzero" fill-opacity="1"/><path d="M882.416 134.03 876.806 139.64 882.416 145.25 883.826 143.84 879.636 139.64 883.826 135.44 882.416 134.03Z" fill="#000000" fill-rule="nonzero" fill-opacity="1"/><path d="M894.146 135.44 898.336 139.64 894.146 143.84 895.556 145.25 901.166 139.64 895.556 134.03 894.146 135.44Z" fill="#000000" fill-rule="nonzero" fill-opacity="1"/></g></g></g></g></svg>