<svg width="360" height="362" xmlns="http://www.w3.org/2000/svg" xmlns:xlink="http://www.w3.org/1999/xlink" overflow="hidden"><defs><clipPath id="clip0"><rect x="856" y="34" width="360" height="362"/></clipPath><clipPath id="clip1"><rect x="856" y="35" width="360" height="360"/></clipPath><clipPath id="clip2"><rect x="856" y="35" width="360" height="360"/></clipPath><clipPath id="clip3"><rect x="856" y="35" width="360" height="360"/></clipPath></defs><g clip-path="url(#clip0)" transform="translate(-856 -34)"><g clip-path="url(#clip1)"><g clip-path="url(#clip2)"><g clip-path="url(#clip3)"><path d="M1036 80C1110.56 80 1171 140.441 1171 215 1171 289.558 1110.56 350 1036 350 961.441 350 901 289.558 901 215 901.085 140.477 961.477 80.0847 1036 80M1036 72.5C957.299 72.5 893.5 136.299 893.5 215 893.5 293.701 957.299 357.5 1036 357.5 1114.7 357.5 1178.5 293.701 1178.5 215 1178.54 136.335 1114.79 72.5352 1036.13 72.5 1036.09 72.5 1036.04 72.5 1036 72.5Z" fill="#000000" fill-rule="nonzero" fill-opacity="1"/><path d="M1036 102.5C1098.13 102.5 1148.5 152.868 1148.5 215 1148.5 277.132 1098.13 327.5 1036 327.5 973.868 327.5 923.5 277.132 923.5 215 923.57 152.897 973.897 102.57 1036 102.5M1036 95C969.726 95 916 148.726 916 215 916 281.274 969.726 335 1036 335 1102.27 335 1156 281.274 1156 215 1155.93 148.757 1102.24 95.0742 1036 95Z" fill="#000000" fill-rule="nonzero" fill-opacity="1"/><path d="M1054.25 234.001 991.289 259.756 1017 197.476 1079.96 171.144ZM1011.25 191.75 977.5 273.5 1060 239.75 1093.75 157.25Z" fill="#000000" fill-rule="nonzero" fill-opacity="1"/><path d="M1043.5 215C1043.5 219.142 1040.14 222.5 1036 222.5 1031.86 222.5 1028.5 219.142 1028.5 215 1028.5 210.858 1031.86 207.5 1036 207.5 1040.14 207.5 1043.5 210.858 1043.5 215Z" fill="#000000" fill-rule="nonzero" fill-opacity="1"/></g></g></g></g></svg>