<svg width="360" height="362" xmlns="http://www.w3.org/2000/svg" xmlns:xlink="http://www.w3.org/1999/xlink" overflow="hidden"><defs><clipPath id="clip0"><rect x="856" y="34" width="360" height="362"/></clipPath><clipPath id="clip1"><rect x="856" y="35" width="360" height="360"/></clipPath><clipPath id="clip2"><rect x="856" y="35" width="360" height="360"/></clipPath><clipPath id="clip3"><rect x="856" y="35" width="360" height="360"/></clipPath></defs><g clip-path="url(#clip0)" transform="translate(-856 -34)"><g clip-path="url(#clip1)"><g clip-path="url(#clip2)"><g clip-path="url(#clip3)"><path d="M1100.67 250.681C1101.74 252.457 1104.04 253.032 1105.82 251.966 1107.59 250.899 1108.17 248.595 1107.1 246.819 1096 228.305 1051.97 182.503 1035.69 180.5 1033.31 180.062 1030.86 180.79 1029.1 182.457 1026.07 185.491 1026.61 192.208 1030.17 215.371 1031.63 223.583 1032.63 231.87 1033.17 240.192 1033.17 240.213 1033.15 240.23 1033.13 240.229 1033.13 240.229 1033.12 240.228 1033.12 240.226 1022.84 234.841 989.417 205.351 970.773 186.702 969.334 185.213 966.96 185.171 965.47 186.61 963.98 188.049 963.939 190.423 965.378 191.913 965.408 191.944 965.439 191.975 965.47 192.005 974.095 200.63 990.239 215.671 1004.41 227.739 1031.31 250.651 1035.58 250.239 1038.66 247.16 1041.74 244.081 1041.16 237.41 1037.59 214.231 1035.93 205.53 1034.96 196.712 1034.69 187.857 1044.05 187.625 1087.7 229.07 1100.67 250.681Z" fill="#000000" fill-rule="nonzero" fill-opacity="1"/><path d="M1171 297.5C1171 301.642 1167.64 305 1163.5 305L908.5 305C904.358 305 901 301.642 901 297.5L901 132.5C901 128.358 904.358 125 908.5 125L1163.5 125C1167.64 125 1171 128.358 1171 132.5L1171 177.234 1178.5 169.734 1178.5 132.5C1178.5 124.216 1171.78 117.5 1163.5 117.5L908.5 117.5C900.216 117.5 893.5 124.216 893.5 132.5L893.5 297.5C893.5 305.784 900.216 312.5 908.5 312.5L1163.5 312.5C1171.78 312.5 1178.5 305.784 1178.5 297.5L1178.5 222.766 1171 230.266Z" fill="#000000" fill-rule="nonzero" fill-opacity="1"/><path d="M1152.25 195.984 1152.25 143.75 919.75 143.75 919.75 286.25 1152.25 286.25 1152.25 249.016 1144.75 256.516 1144.75 278.75 927.25 278.75 927.25 151.25 1144.75 151.25 1144.75 203.484 1152.25 195.984Z" fill="#000000" fill-rule="nonzero" fill-opacity="1"/><path d="M1188.1 186.646C1185.91 184.449 1182.35 184.448 1180.15 186.644 1180.15 186.644 1180.15 186.646 1180.15 186.646L1122.02 244.771C1119.82 246.969 1119.82 250.531 1122.02 252.729 1124.22 254.926 1127.78 254.926 1129.98 252.729L1188.1 194.604C1190.3 192.408 1190.3 188.846 1188.11 186.649 1188.11 186.648 1188.1 186.647 1188.1 186.646Z" fill="#000000" fill-rule="nonzero" fill-opacity="1"/></g></g></g></g></svg>